<svg width="60" height="60" viewBox="0 0 60 60" fill="none" xmlns="http://www.w3.org/2000/svg">
<rect x="7.5" y="1.5" width="44" height="57" rx="10.5" stroke="#272727" stroke-width="3"/>
<path d="M30.0002 18C30.541 18.0002 30.9797 18.4387 30.9797 18.9795V29.0205H41.0208C41.5616 29.0207 42.0002 29.4592 42.0002 30C42.0002 30.5409 41.5616 30.9793 41.0208 30.9795H30.9797V41.0205C30.9797 41.5613 30.541 41.9998 30.0002 42C29.4593 42 29.0208 41.5615 29.0208 41.0205V30.9795H18.9797C18.4387 30.9795 18.0002 30.541 18.0002 30C18.0003 29.4591 18.4388 29.0205 18.9797 29.0205H29.0208V18.9795C29.0208 18.4385 29.4593 18 30.0002 18Z" fill="#272727"/>
</svg>
